# xmcd
#
# Track frame offsets:
#	150
#	4275
#	13310
#	22351
#	31390
#	40439
#	49502
#	58563
#	67604
#	76641
#	85696
#	95129
#	104174
#	113227
#	122282
#	131331
#	140398
#	149451
#	158510
#	167561
#	176618
#	185657
#	194702
#	203745
#	212798
#	221849
#	230912
#	239975
#	249022
#	258071
#	267136
#	276197
#	285260
#	294323
#	303756
#	312803
#	321872
#
# Disc length: 4412
#
# Revision: 1
# Processed by: cddbd v1.5.1PL0 Copyright (c) Steve Scherf et al.
# Submitted via: audiograbber 1.82.02
# Normalized: r0:DSETVAR1
#
DISCID=18113a25
DTITLE=Various Artist - DJ LRM - Instrumental World V. 15 (Out Of Town Edition) (Feat. Pacman and Goldie)
DYEAR=2003
DGENRE=Hip-Hop
TTITLE0=LRM - Intro
TTITLE1=Snoop Dogg Feat. Marvin Gaye - Dance With Me
TTITLE2=Ludacris - Splash Waterfalls
TTITLE3=Cee-Lo - I'll Be Around
TTITLE4=Youngbloodz Feat. Lil Jon - Damn
TTITLE5=Bravehearts Feat. Nas and Lil Jon - Quick To Back Down
TTITLE6=Nelly - Iz U
TTITLE7=Bonecrusher Feat. Cotton Mouth - Fat Man Stomp
TTITLE8=Knock-Turnal Feat. Snoop Dogg - The Way I Am
TTITLE9=Big Tymers Feat. R. Kelly - Gangsta Girl
TTITLE10=Ludacris - Blow It Out
TTITLE11=Snoop Dogg - It Blows My Mind
TTITLE12=Ying Yang Twins - Naggin'
TTITLE13=T.I. - Be Easy
TTITLE14=Chingy - Right Thurr
TTITLE15=Chingy Feat. Snoop Dogg and Ludacris - Holidae Inn
TTITLE16=Youngbloodz - Lean Low
TTITLE17=Lil Jon Feat. Ying Yang Twins - Get Low
TTITLE18=Snoop Dogg Feat. Jay-Z and Nate Dogg - Lollipop
TTITLE19=Outkast - The Way You Move
TTITLE20=T.I. - 24's
TTITLE21=David Banner - Cadillac On 22's
TTITLE22=Nappy Roots - What Cha Gonna Do (The Anthem)
TTITLE23=Nappy Roots - Sick and Tired
TTITLE24=Memphis Bleed Feat. T.I. and Trick Daddy - Round Here
TTITLE25=Da Band - They Know
TTITLE26=Da Band - Chopped Up
TTITLE27=Three 6 Mafia - You Scared Pt. 2
TTITLE28=Ying Yang Twinz - Georgia Dome
TTITLE29=Famlay Feat. Lil Flip - Rock N' Roll (Remix)
TTITLE30=Lil Scrappy - Head Bussa
TTITLE31=Trillville - Neva Eva
TTITLE32=Lil Wayne - Get Something
TTITLE33=Boo and Gotti Feat. TQ - Baby Girl
TTITLE34=213 - Run On Up
TTITLE35=Ludacris - Stand Up
TTITLE36=Petey Pablo - Freek- A -Leek
EXTD=
EXTT0=
EXTT1=
EXTT2=
EXTT3=
EXTT4=
EXTT5=
EXTT6=
EXTT7=
EXTT8=
EXTT9=
EXTT10=
EXTT11=
EXTT12=
EXTT13=
EXTT14=
EXTT15=
EXTT16=
EXTT17=
EXTT18=
EXTT19=
EXTT20=
EXTT21=
EXTT22=
EXTT23=
EXTT24=
EXTT25=
EXTT26=
EXTT27=
EXTT28=
EXTT29=
EXTT30=
EXTT31=
EXTT32=
EXTT33=
EXTT34=
EXTT35=
EXTT36=
PLAYORDER=
